<?xml version="1.0" standalone="no"?>
<!DOCTYPE svg PUBLIC "-//W3C//DTD SVG 20010904//EN"
 "http://www.w3.org/TR/2001/REC-SVG-20010904/DTD/svg10.dtd">
<svg version="1.0" xmlns="http://www.w3.org/2000/svg"
 width="1280.000000pt" height="1239.000000pt" viewBox="0 0 1280.000000 1239.000000"
 preserveAspectRatio="xMidYMid meet">
<metadata>
Created by potrace 1.15, written by Peter Selinger 2001-2017
</metadata>
<g transform="translate(0.000000,1239.000000) scale(0.100000,-0.100000)"
fill="#000000" stroke="none">
<path d="M403 10121 c9 -3466 35 -4667 118 -5461 51 -497 86 -734 116 -798 24
-50 53 -59 103 -33 22 11 54 21 70 21 16 0 90 31 169 71 170 88 210 95 298 54
71 -32 169 -43 244 -25 92 21 208 83 281 149 l66 61 97 0 c60 0 121 -6 159
-17 79 -21 207 -21 265 0 40 16 343 17 3971 17 3671 0 3930 -1 3966 -17 52
-23 190 -23 263 0 37 11 89 17 159 17 l104 0 68 -62 c156 -145 362 -194 515
-124 91 42 122 37 283 -44 77 -38 155 -73 173 -76 19 -3 55 -15 81 -26 45 -20
48 -20 73 -4 37 24 52 66 75 208 27 164 86 695 104 938 51 670 71 1620 85
4145 12 1981 18 2710 27 2981 6 166 4 196 -10 224 -9 18 -16 41 -16 50 0 17
-309 18 -5956 18 l-5957 0 6 -2267z m775 -2393 l-1 -113 -7 90 c-6 83 -3 135
6 135 2 0 3 -51 2 -112z"/>
<path d="M2525 4041 c-201 -92 -168 -386 48 -431 171 -35 316 124 265 291 -15
52 -73 117 -122 140 -53 24 -139 24 -191 0z"/>
<path d="M3940 4044 c-179 -77 -181 -335 -4 -419 54 -26 147 -24 201 3 164 84
164 325 0 407 -59 29 -141 33 -197 9z"/>
<path d="M5330 4044 c-50 -22 -89 -61 -116 -119 -80 -169 71 -354 255 -314
176 37 241 257 115 383 -62 62 -175 84 -254 50z"/>
<path d="M7299 4032 c-158 -83 -158 -322 0 -401 51 -26 105 -32 164 -19 70 15
148 91 166 162 49 197 -150 352 -330 258z"/>
<path d="M8735 4041 c-200 -91 -169 -384 46 -430 145 -31 279 78 279 229 0 45
-39 127 -76 162 -62 58 -170 75 -249 39z"/>
<path d="M10045 4046 c-104 -45 -158 -153 -134 -266 9 -44 21 -63 63 -106 42
-41 62 -54 103 -62 117 -26 225 29 271 138 24 58 12 157 -26 213 -57 82 -188
122 -277 83z"/>
<path d="M2345 3578 c-42 -15 -93 -55 -117 -92 -19 -30 -19 -42 -13 -291 7
-272 14 -317 58 -354 21 -17 22 -41 2 -41 -30 0 -93 -40 -127 -80 -61 -71 -73
-152 -34 -235 44 -96 121 -140 229 -133 72 5 134 40 168 94 l21 34 207 0 206
0 92 93 c95 95 132 155 133 215 0 56 -23 50 -107 -26 -43 -39 -79 -70 -80 -68
-1 1 17 47 40 101 l41 100 6 175 c4 96 7 171 9 165 1 -5 15 -86 30 -180 20
-118 26 -174 18 -183 -5 -7 -7 -15 -3 -19 3 -4 58 -7 121 -7 63 -1 115 -4 115
-8 0 -5 11 -8 25 -8 18 0 25 5 25 19 0 10 7 21 15 25 22 8 18 36 -5 36 -11 0
-20 7 -20 14 0 28 40 288 46 297 9 15 -82 100 -99 93 -8 -3 -21 3 -28 14 -19
26 -55 33 -86 17 -14 -7 -32 -11 -40 -8 -9 3 -16 -2 -19 -15 -4 -13 -12 -18
-23 -15 -13 3 -20 -3 -24 -18 -4 -13 -9 -20 -13 -16 -4 4 -16 0 -26 -10 -17
-16 -18 -12 -18 103 0 134 -12 167 -72 204 -31 19 -51 20 -328 19 -178 0 -307
-5 -325 -11z"/>
<path d="M3770 3581 c-84 -26 -140 -84 -147 -154 -2 -23 0 -146 5 -272 10
-242 15 -268 64 -322 28 -31 16 -43 -32 -32 -74 17 -169 -19 -220 -84 -50 -64
-62 -140 -35 -218 62 -176 307 -202 411 -44 l16 25 262 0 262 0 101 103 c74
74 104 113 113 142 13 46 10 97 -6 102 -7 2 -38 -20 -70 -49 -113 -102 -108
-102 -64 6 57 141 62 178 58 451 -3 219 -5 243 -24 279 -38 74 -50 76 -379 75
-159 0 -301 -4 -315 -8z"/>
<path d="M5125 3567 c-55 -26 -101 -73 -111 -114 -4 -14 -2 -138 3 -276 10
-264 14 -288 64 -342 23 -26 14 -38 -39 -53 -161 -48 -208 -276 -80 -388 48
-43 97 -57 174 -52 74 5 133 39 173 101 l24 37 207 0 207 0 99 103 c73 75 103
113 112 143 15 51 15 91 1 100 -10 6 -22 -3 -128 -94 l-49 -42 39 100 c48 121
61 185 53 259 -11 92 5 51 25 -65 17 -100 18 -109 2 -121 -14 -11 -14 -12 -1
-13 9 0 51 -5 95 -10 49 -6 92 -7 112 -1 24 7 33 6 37 -5 3 -8 15 -14 27 -14
16 0 20 5 16 20 -3 13 1 24 14 30 25 14 24 40 -1 40 -14 0 -20 7 -20 23 1 35
37 275 44 286 8 13 -82 103 -95 95 -6 -3 -20 3 -32 13 -33 30 -55 34 -81 17
-13 -8 -28 -14 -32 -13 -22 4 -34 -2 -34 -17 0 -11 -5 -14 -16 -10 -11 4 -18
-1 -21 -14 -3 -11 -12 -20 -19 -20 -11 0 -14 19 -14 83 0 104 -13 150 -55 195
l-33 37 -309 3 c-306 2 -308 2 -358 -21z"/>
<path d="M7033 3574 c-18 -9 -43 -33 -55 -53 -22 -35 -23 -43 -23 -321 l0
-285 47 -112 c51 -124 52 -124 -53 -30 l-65 59 7 56 c4 32 15 120 24 196 19
160 19 160 -60 172 l-43 6 12 30 c6 18 34 48 64 70 38 28 51 43 43 51 -7 7
-21 2 -48 -17 -67 -47 -71 -51 -83 -93 -12 -40 -16 -43 -64 -53 -82 -17 -81
-15 -62 -116 9 -49 16 -137 16 -196 l0 -107 46 -7 c25 -3 64 -4 87 -1 l42 6
-3 -42 c-4 -62 22 -105 127 -212 l94 -95 141 0 141 -1 26 -38 c78 -112 280
-112 358 0 21 31 32 38 59 39 32 0 32 0 26 43 -8 59 -21 99 -65 201 -39 88
-39 90 -20 110 48 53 52 77 63 346 11 289 9 305 -58 357 -65 49 -88 52 -399
52 -246 1 -295 -2 -322 -15z"/>
<path d="M8465 3580 c-33 -13 -72 -63 -84 -105 -6 -22 -11 -86 -11 -142 l0
-102 -40 39 c-22 22 -42 34 -46 29 -4 -7 -17 -1 -33 14 -32 30 -62 41 -71 27
-4 -6 -19 -12 -34 -14 -14 -1 -32 -11 -40 -21 -7 -10 -18 -15 -23 -12 -6 4
-13 -2 -16 -13 -3 -12 -14 -20 -25 -20 -11 0 -23 -7 -26 -16 -5 -13 27 -236
50 -347 5 -26 4 -27 -19 -22 -22 6 -25 3 -29 -32 -3 -21 0 -41 6 -45 15 -10
59 2 73 20 10 12 25 13 73 8 64 -7 175 18 163 37 -7 11 28 297 37 297 3 0 4
-34 2 -75 -5 -101 10 -183 58 -300 44 -109 49 -109 -64 -7 -32 29 -63 51 -70
49 -16 -5 -19 -49 -6 -98 9 -32 34 -65 112 -145 l101 -104 209 0 c131 0 208
-4 208 -10 0 -20 76 -94 115 -111 56 -26 145 -25 197 2 116 59 160 191 102
307 -28 57 -89 108 -140 118 -37 7 -50 27 -28 45 9 7 25 31 37 53 19 37 22 67
30 285 5 133 6 258 3 277 -9 47 -51 93 -111 120 -49 23 -56 24 -345 23 -162 0
-304 -4 -315 -9z"/>
<path d="M9750 3568 c-69 -48 -71 -59 -68 -378 l3 -285 38 -95 c22 -52 42
-102 45 -110 3 -8 -33 19 -80 60 -71 62 -87 80 -87 105 -1 31 24 263 34 323 6
30 3 34 -29 47 -20 8 -47 15 -61 15 -29 0 -28 -2 -14 37 6 19 30 44 64 68 30
20 52 41 49 46 -9 16 -25 10 -74 -26 -35 -26 -52 -47 -62 -77 -13 -38 -18 -42
-68 -55 -78 -20 -79 -22 -63 -95 7 -35 16 -122 20 -195 l6 -132 52 -6 c29 -4
63 -4 76 0 63 18 61 18 54 -4 -3 -12 1 -46 10 -77 14 -49 30 -70 112 -155 l96
-99 265 0 265 0 34 -39 c51 -60 109 -84 192 -79 81 4 135 35 178 99 32 48 43
144 23 204 -34 102 -156 170 -262 146 -21 -5 -38 -8 -38 -6 0 1 16 29 35 61
30 49 35 67 35 118 1 34 5 149 10 256 9 217 7 232 -51 287 -62 59 -89 63 -414
63 -286 0 -293 0 -325 -22z"/>
<path d="M4513 3433 c-22 -8 -14 -19 41 -57 48 -33 65 -57 66 -92 0 -6 -18
-14 -41 -17 -41 -5 -83 -33 -74 -48 6 -8 29 -186 40 -301 7 -76 10 -78 112
-78 96 0 93 -4 93 120 0 59 7 145 16 191 18 95 14 103 -55 115 -56 9 -56 9
-71 53 -9 30 -27 52 -64 79 -28 21 -57 37 -63 35z"/>
<path d="M987 2799 c-218 -51 -245 -350 -40 -436 46 -19 140 -16 188 6 187 87
163 366 -37 426 -57 17 -57 17 -111 4z"/>
<path d="M11845 2801 c-186 -45 -244 -273 -101 -398 46 -41 95 -56 170 -51 83
5 144 46 182 123 66 136 -8 291 -156 324 -50 12 -53 12 -95 2z"/>
<path d="M10196 2340 c-38 -12 -75 -47 -92 -87 -9 -20 -14 -70 -14 -133 l0
-101 -45 45 c-26 26 -47 41 -51 35 -4 -7 -16 -1 -33 14 -29 28 -71 44 -71 28
0 -5 -16 -13 -36 -17 -19 -4 -38 -13 -41 -21 -3 -8 -12 -12 -20 -9 -9 4 -17
-1 -20 -14 -3 -11 -14 -20 -24 -20 -11 0 -22 -7 -25 -15 -5 -12 38 -308 53
-358 4 -15 0 -17 -21 -11 -24 6 -26 3 -27 -25 -1 -17 -2 -37 -3 -43 -1 -19 66
-11 81 8 9 13 23 15 71 9 45 -5 74 -2 116 11 31 10 52 20 47 23 -8 6 34 329
44 339 3 3 5 -65 5 -151 0 -148 1 -159 31 -244 17 -48 38 -101 46 -116 8 -16
13 -31 10 -33 -2 -2 -39 27 -83 65 -85 76 -99 77 -97 11 3 -57 27 -96 129
-204 l91 -96 224 0 225 0 34 -35 c47 -49 93 -68 165 -68 175 1 278 173 199
332 -29 58 -90 106 -150 117 l-32 6 24 35 c31 46 33 59 44 332 8 200 7 239 -6
270 -21 50 -48 76 -102 99 -42 18 -79 20 -332 26 -162 3 -297 1 -314 -4z"/>
<path d="M955 2331 c-168 -5 -195 -8 -230 -27 -49 -27 -70 -49 -89 -95 -13
-31 -14 -72 -5 -289 11 -263 13 -276 61 -341 19 -25 19 -26 -8 -88 l-28 -63
-17 34 c-41 80 -119 128 -209 128 -70 0 -126 -26 -171 -79 -181 -210 96 -494
317 -325 l44 34 373 0 374 0 90 98 c101 109 123 145 126 202 2 66 -12 65 -97
-11 -44 -38 -81 -67 -83 -65 -2 2 6 25 18 52 49 113 62 162 68 254 l6 95 16
-95 c14 -87 14 -96 0 -107 -9 -7 -12 -13 -8 -13 4 0 50 -5 101 -10 61 -7 102
-7 119 -1 19 8 27 7 31 -5 3 -8 15 -14 27 -14 16 0 20 5 16 20 -3 13 1 24 14
30 25 14 24 30 -1 37 -25 7 -25 18 0 179 11 71 20 134 20 141 0 18 -80 94 -92
87 -5 -3 -19 3 -31 14 -27 25 -55 30 -84 14 -12 -7 -26 -12 -30 -11 -21 4 -33
-2 -33 -17 0 -10 -6 -14 -15 -10 -9 3 -19 -3 -25 -14 -21 -39 -30 -19 -30 60
0 97 -15 138 -65 176 -36 27 -42 28 -159 30 -66 0 -206 -2 -311 -5z"/>
<path d="M2235 2331 c-210 -7 -227 -11 -283 -76 -18 -19 -35 -47 -38 -61 -4
-14 -2 -140 4 -279 9 -229 12 -258 30 -290 l21 -35 -62 0 c-241 0 -316 -336
-97 -433 86 -38 198 -20 254 42 19 20 27 21 301 21 l282 0 100 103 c80 83 102
111 112 149 8 26 11 59 9 73 -5 25 -5 25 63 25 103 0 99 -5 99 120 0 59 7 145
16 191 18 95 14 103 -55 115 -57 9 -59 11 -72 55 -10 32 -25 50 -63 78 -28 20
-56 35 -62 33 -6 -1 -15 14 -19 35 -9 52 -41 100 -78 120 -37 20 -157 24 -462
14z m627 -245 c15 -12 30 -36 34 -54 6 -31 6 -32 -29 -32 -19 0 -45 -8 -57
-18 l-22 -18 16 -129 c8 -72 18 -158 22 -192 3 -35 10 -63 15 -63 4 0 -15 -21
-44 -47 -29 -26 -67 -61 -85 -78 l-33 -30 22 55 c78 193 72 163 77 423 l4 237
26 -16 c15 -8 39 -25 54 -38z"/>
<path d="M3535 2331 c-205 -6 -224 -11 -276 -68 -51 -55 -52 -57 -44 -327 7
-264 7 -265 62 -367 2 -4 -12 -17 -32 -29 -108 -67 -127 -248 -37 -343 88 -93
246 -94 331 -3 l24 26 191 0 191 0 92 93 c94 94 133 156 133 212 0 66 -13 63
-106 -21 -48 -43 -85 -74 -83 -69 92 225 89 214 90 357 0 73 3 127 6 119 15
-38 49 -277 41 -288 -13 -17 -2 -20 98 -28 62 -5 99 -3 113 4 17 10 21 9 21
-4 0 -10 9 -15 26 -15 21 0 25 4 21 19 -3 13 1 21 15 24 24 7 20 43 -5 41 -22
-2 -22 9 4 185 l22 144 -42 38 c-23 21 -47 36 -55 33 -8 -3 -20 4 -28 15 -17
24 -72 39 -82 22 -4 -6 -18 -11 -32 -11 -14 0 -27 -7 -30 -15 -4 -8 -15 -15
-25 -15 -10 0 -19 -7 -19 -15 0 -8 -4 -15 -9 -15 -5 0 -15 -2 -23 -5 -10 -4
-13 15 -13 92 0 114 -20 165 -76 198 -39 22 -146 26 -464 16z"/>
<path d="M7190 2317 c-62 -41 -75 -77 -75 -204 l0 -112 -30 27 c-16 15 -34 33
-41 41 -8 11 -13 11 -18 2 -6 -8 -14 -5 -31 13 -27 29 -50 33 -88 18 -16 -7
-34 -12 -42 -12 -7 0 -15 -7 -19 -15 -3 -8 -12 -12 -21 -9 -10 4 -15 0 -15
-10 0 -9 -11 -21 -24 -26 -13 -5 -27 -13 -30 -18 -3 -5 8 -87 24 -182 17 -94
30 -175 30 -180 0 -4 -11 -5 -23 -3 -22 4 -24 2 -23 -39 1 -28 5 -43 14 -42 6
1 23 2 37 3 16 0 25 7 25 17 0 15 9 16 67 11 84 -8 173 15 166 43 -4 16 17
183 35 270 4 23 9 -18 12 -115 6 -148 6 -151 48 -250 22 -54 40 -100 39 -102
-2 -1 -38 30 -80 68 -84 77 -107 83 -107 27 1 -60 38 -120 133 -215 l92 -93
213 0 213 0 25 -29 c56 -67 181 -94 264 -59 108 46 166 178 125 284 -24 63
-77 119 -131 140 -40 15 -43 18 -30 33 38 42 44 82 51 346 l7 260 -24 35 c-28
41 -77 76 -127 90 -20 5 -161 10 -322 10 -280 0 -287 0 -319 -23z"/>
<path d="M11552 2330 c-44 -10 -90 -55 -103 -100 -7 -22 -9 -138 -7 -310 l3
-275 38 -95 c22 -52 41 -102 44 -110 3 -8 -16 5 -43 30 -27 25 -66 60 -86 79
l-37 34 -12 -27 c-10 -22 -9 -36 5 -83 15 -47 33 -72 114 -155 l95 -98 308 0
309 0 44 -34 c221 -169 498 115 317 325 -68 80 -181 103 -274 55 -47 -23 -66
-14 -30 15 47 39 60 148 65 546 1 94 -26 139 -104 176 -52 25 -60 25 -333 30
-154 3 -295 2 -313 -3z"/>
<path d="M5030 2321 c-166 -5 -189 -8 -227 -28 -43 -23 -86 -71 -97 -109 -12
-39 14 -524 30 -562 8 -19 13 -36 12 -37 -2 -1 -18 -7 -35 -14 -18 -7 -50 -32
-72 -56 -66 -72 -79 -165 -35 -253 63 -127 222 -166 341 -82 l41 30 224 0 223
0 97 98 c54 53 104 114 113 134 16 39 20 113 7 122 -4 2 -43 -27 -86 -65 -44
-38 -81 -68 -82 -66 -2 2 16 50 39 108 l42 104 3 275 c3 270 2 276 -20 320
-37 71 -70 85 -213 86 -66 1 -203 -2 -305 -5z"/>
<path d="M8792 2320 c-18 -4 -45 -18 -59 -31 -53 -50 -54 -59 -53 -355 1 -295
-1 -287 60 -433 16 -41 30 -76 30 -78 0 -3 -38 29 -84 71 -72 66 -85 74 -96
61 -15 -18 -7 -82 16 -129 9 -17 57 -73 107 -123 l92 -93 198 0 199 0 41 -30
c119 -84 278 -45 341 82 49 98 28 200 -56 273 l-45 39 23 46 c22 42 23 61 30
300 6 223 5 260 -9 286 -21 41 -78 90 -119 102 -41 13 -571 23 -616 12z"/>
<path d="M8563 2139 c-39 -29 -55 -50 -65 -80 -13 -44 -13 -44 -69 -53 -70
-12 -73 -19 -55 -126 9 -51 16 -137 16 -191 0 -111 -2 -109 90 -109 99 0 106
6 115 97 3 43 13 128 21 188 14 109 14 110 -7 128 -12 10 -38 17 -60 17 -21 0
-39 2 -39 4 0 26 37 77 79 106 40 29 49 39 39 48 -10 8 -26 1 -65 -29z"/>
<path d="M11328 2143 c-35 -27 -49 -47 -58 -80 -8 -28 -18 -43 -29 -43 -21 0
-82 -18 -100 -29 -11 -7 -11 -18 -1 -62 7 -30 15 -117 19 -193 l6 -140 35 -9
c35 -9 125 -2 147 11 6 4 18 73 28 157 9 83 20 167 25 188 7 32 5 39 -14 52
-11 9 -38 18 -58 22 -21 3 -38 9 -38 14 0 27 25 61 69 93 28 21 49 42 45 47
-9 16 -27 9 -76 -28z"/>
<path d="M5585 2150 c-3 -5 17 -26 45 -46 45 -32 70 -66 70 -93 0 -5 -17 -11
-37 -14 -21 -4 -47 -13 -59 -21 -19 -14 -20 -18 -8 -98 7 -46 17 -130 22 -187
7 -65 16 -107 24 -112 24 -15 99 -22 141 -13 l42 9 6 145 c3 80 11 167 18 194
9 40 9 51 -1 58 -17 10 -78 28 -100 28 -11 0 -21 14 -30 41 -9 30 -26 52 -61
80 -51 41 -62 45 -72 29z"/>
<path d="M135 1097 c-60 -28 -102 -74 -111 -121 -3 -19 -2 -144 3 -277 8 -218
11 -248 30 -285 12 -22 28 -46 36 -53 13 -10 9 -28 -32 -129 -27 -64 -51 -141
-55 -170 l-7 -52 379 0 379 0 101 104 c103 106 128 149 120 213 -5 41 -24 38
-80 -14 -119 -108 -112 -109 -67 5 54 139 59 173 59 424 0 250 -7 291 -56 339
l-35 34 -307 3 c-305 2 -307 2 -357 -21z"/>
<path d="M1636 1110 c-42 -13 -90 -49 -117 -88 -27 -40 -27 -29 -14 -374 l7
-198 34 -56 34 -56 -46 -111 c-25 -61 -48 -135 -51 -164 l-6 -53 380 0 380 0
96 99 c79 82 98 107 111 151 16 53 13 100 -7 100 -5 0 -45 -32 -89 -71 -43
-39 -78 -68 -78 -66 0 3 19 51 42 108 l43 104 6 190 c3 105 6 181 8 170 1 -11
15 -92 30 -180 20 -112 26 -164 18 -173 -5 -7 -7 -15 -4 -18 3 -3 58 -7 121
-8 64 0 116 -4 116 -8 0 -5 12 -8 26 -8 21 0 25 4 21 19 -3 13 1 21 15 24 24
7 20 43 -5 41 -11 -1 -17 6 -17 21 0 32 38 273 45 284 9 15 -81 102 -98 95 -8
-3 -21 3 -28 14 -19 26 -55 33 -86 17 -14 -7 -32 -11 -40 -8 -9 3 -16 -2 -19
-15 -4 -13 -12 -18 -25 -15 -13 4 -19 0 -19 -11 0 -9 -5 -16 -12 -16 -6 0 -20
-7 -30 -17 -17 -15 -18 -13 -18 78 0 109 -15 151 -69 186 -33 23 -38 23 -330
22 -163 0 -309 -5 -325 -9z"/>
<path d="M4515 1097 c-55 -26 -101 -73 -111 -114 -4 -14 -3 -141 2 -283 l9
-258 34 -48 c38 -54 39 -47 -22 -194 -19 -47 -38 -109 -42 -138 l-7 -52 379 0
378 0 92 93 c95 95 132 155 133 215 0 56 -23 50 -107 -27 -42 -38 -78 -69 -80
-68 -1 2 16 48 39 102 29 71 42 119 46 168 3 37 6 66 8 64 2 -2 9 -30 15 -61
7 -42 7 -61 -1 -71 -9 -11 -5 -15 22 -20 54 -10 171 -11 196 -2 16 6 22 5 20
-5 -2 -8 7 -13 22 -13 18 0 24 5 22 16 -1 9 4 19 13 23 23 8 19 46 -5 46 -11
0 -20 6 -20 13 0 19 40 270 46 289 6 20 -82 113 -92 97 -4 -7 -16 -1 -33 14
-29 28 -71 44 -71 28 0 -5 -15 -13 -34 -17 -19 -3 -37 -12 -40 -20 -3 -8 -14
-14 -23 -12 -10 2 -18 -3 -18 -11 0 -8 -4 -16 -10 -18 -6 -2 -10 31 -11 85 0
94 -12 128 -59 172 l-27 25 -306 3 c-305 2 -307 2 -357 -21z"/>
<path d="M9002 1100 c-18 -11 -41 -34 -52 -52 -19 -31 -20 -51 -20 -315 0
-311 -6 -274 70 -463 l22 -55 -34 30 c-18 16 -54 49 -80 74 -54 50 -78 50 -78
-1 1 -60 38 -120 133 -216 l92 -92 378 0 379 0 -7 52 c-4 29 -27 102 -51 162
-24 61 -44 113 -44 118 0 4 15 28 32 53 33 46 33 48 40 198 13 293 10 388 -11
423 -23 38 -74 77 -120 93 -22 7 -134 11 -325 11 -273 0 -293 -1 -324 -20z"/>
<path d="M12005 1110 c-33 -13 -72 -63 -84 -105 -14 -50 -15 -463 -1 -534 5
-29 27 -97 49 -153 45 -114 52 -113 -67 -5 -56 52 -75 55 -80 14 -8 -64 17
-107 120 -213 l101 -104 379 0 379 0 -7 53 c-4 28 -28 105 -55 169 -41 101
-45 119 -32 129 8 7 24 31 36 53 19 37 22 67 30 285 5 133 6 258 3 277 -9 47
-51 93 -111 120 -49 23 -56 24 -345 23 -162 0 -304 -4 -315 -9z"/>
<path d="M3094 1094 c-51 -18 -111 -76 -123 -119 -5 -18 -5 -117 0 -226 4
-107 8 -219 9 -250 0 -45 7 -66 35 -113 l34 -57 -45 -111 c-25 -61 -48 -135
-51 -165 l-6 -53 380 0 380 0 96 99 c82 85 98 106 112 155 16 56 13 96 -7 96
-6 0 -46 -32 -90 -71 -43 -39 -78 -68 -78 -65 0 3 19 52 42 108 l43 103 3 282
c3 269 2 283 -18 323 -40 79 -45 80 -380 79 -232 0 -304 -4 -336 -15z"/>
<path d="M7505 1100 c-33 -13 -72 -63 -84 -105 -14 -50 -15 -463 -1 -534 5
-29 27 -97 49 -152 44 -112 49 -111 -63 -11 -32 29 -63 51 -70 49 -16 -5 -19
-49 -6 -98 9 -32 34 -65 112 -145 l101 -104 378 0 378 0 -6 53 c-3 28 -27 104
-53 168 l-47 115 28 33 c15 19 32 54 38 80 16 73 25 500 11 536 -17 44 -49 75
-105 101 -49 23 -55 24 -345 23 -162 0 -304 -4 -315 -9z"/>
<path d="M10479 1087 c-67 -45 -70 -58 -67 -377 l3 -285 43 -104 c23 -57 42
-105 42 -108 0 -3 -35 27 -79 66 -43 39 -84 71 -90 71 -20 0 -23 -49 -5 -102
13 -42 36 -72 112 -150 l95 -98 380 0 380 0 -6 54 c-3 32 -25 101 -52 164
l-46 110 30 48 c17 26 33 61 36 78 10 63 22 492 14 521 -5 17 -26 47 -46 67
-66 64 -89 68 -418 68 -287 0 -293 0 -326 -23z"/>
<path d="M10308 933 c-35 -27 -49 -47 -58 -80 -10 -34 -17 -43 -35 -43 -24 0
-85 -19 -98 -30 -4 -4 -3 -29 4 -56 6 -27 14 -114 18 -194 l6 -145 40 -7 c41
-7 124 -1 143 11 6 4 20 87 31 184 11 98 23 182 26 186 9 15 -30 40 -73 47
-23 4 -42 10 -42 15 0 28 26 63 70 95 27 20 50 40 50 45 0 19 -37 6 -82 -28z"/>
<path d="M905 950 c-3 -5 18 -25 48 -45 39 -26 57 -45 64 -69 l11 -34 -43 -6
c-78 -12 -79 -15 -61 -146 8 -63 18 -150 22 -192 5 -59 10 -78 23 -82 50 -14
87 -17 131 -11 l50 7 0 103 c0 56 7 142 15 191 9 48 14 93 11 100 -3 7 -31 18
-64 25 -57 12 -59 13 -70 53 -8 32 -22 50 -61 79 -53 39 -66 43 -76 27z"/>
<path d="M7313 921 c-35 -27 -53 -50 -61 -78 -11 -37 -16 -41 -52 -46 -23 -3
-51 -12 -64 -20 -23 -15 -23 -17 -9 -79 7 -35 16 -123 20 -195 l6 -133 36 -2
c59 -3 124 3 143 13 12 6 18 21 18 42 0 37 27 278 36 320 5 24 2 29 -30 42
-19 8 -47 15 -61 15 -29 0 -29 0 -11 44 8 20 32 44 60 62 45 28 60 54 32 54
-8 0 -36 -17 -63 -39z"/>
<path d="M3855 940 c-9 -15 0 -25 50 -57 39 -24 65 -62 65 -94 0 -5 -14 -9
-30 -9 -45 0 -92 -27 -85 -49 3 -9 14 -95 25 -191 11 -95 22 -176 25 -179 9
-8 142 -14 170 -7 25 6 25 7 25 129 1 67 7 151 15 187 8 36 14 69 15 73 0 12
-66 37 -98 37 -26 0 -31 5 -42 45 -10 35 -23 52 -59 79 -63 45 -69 48 -76 36z"/>
<path d="M11698 920 c-2 -6 -16 -12 -32 -14 -16 -2 -33 -10 -38 -19 -4 -9 -15
-14 -22 -11 -8 3 -16 -3 -19 -15 -3 -12 -13 -21 -25 -21 -11 0 -23 -7 -26 -16
-5 -13 27 -232 50 -347 5 -26 4 -27 -19 -22 -22 6 -25 3 -29 -30 -2 -20 1 -40
7 -45 14 -12 57 -2 72 18 10 12 25 13 73 8 44 -5 74 -3 113 10 47 14 53 20 49
39 -4 21 32 287 44 328 6 20 -82 112 -92 96 -4 -6 -17 -1 -33 14 -30 29 -67
43 -73 27z"/>
<path d="M8716 901 c-4 -6 -20 -11 -36 -11 -20 0 -31 -6 -35 -19 -4 -12 -12
-18 -21 -14 -7 3 -14 0 -14 -6 0 -6 -11 -16 -25 -21 -14 -5 -28 -16 -31 -24
-3 -7 9 -93 25 -191 17 -97 31 -178 31 -180 0 -1 -11 0 -24 2 -21 4 -24 1 -28
-32 -2 -20 -1 -38 4 -41 15 -9 78 8 78 22 0 10 15 12 68 7 52 -4 82 -1 123 12
30 10 49 20 43 22 -8 3 -4 52 12 161 25 168 27 180 25 199 -1 17 -70 78 -87
78 -7 0 -23 8 -34 17 -26 23 -66 33 -74 19z"/>
</g>
</svg>
